# xmcd CD database file
#
# Track frame offsets:
#	187
#	20717
#	35264
#	52774
#	71049
#	92319
#	108547
#	120232
#	134852
#	152744
#
# Disc length: 2282 seconds
#
# Revision: 1
# Processed by: cddbd v1.5.1PL2 Copyright (c) Steve Scherf et al.
# Submitted via: CDex 1.51
#
DISCID=7e08e80a
DTITLE=Bryan Adams - Reckless
DYEAR=1900
DGENRE=
TTITLE0=One Night Love Affair
TTITLE1=She's Only Happy When She's Dancin'
TTITLE2=Run To You
TTITLE3=Heaven
TTITLE4=Somebody
TTITLE5=Summer Of '69
TTITLE6=Kids Wanna Rock
TTITLE7=It's Only Love
TTITLE8=Long Gone
TTITLE9=Ain't Gonna Cry
EXTD=
EXTT0=
EXTT1=
EXTT2=
EXTT3=
EXTT4=
EXTT5=
EXTT6=
EXTT7=
EXTT8=
EXTT9=
PLAYORDER=
